<mxfile host="Electron" modified="2024-10-10T13:18:50.857Z" agent="Mozilla/5.0 (Macintosh; Intel Mac OS X 10_15_7) AppleWebKit/537.36 (KHTML, like Gecko) draw.io/22.0.0 Chrome/114.0.5735.289 Electron/25.8.3 Safari/537.36" etag="HJuMakX3NzTvWyOYM368" version="22.0.0" type="device">
  <diagram name="Pagina-1" id="DecA9rPm21dyo5u15IFH">
    <mxGraphModel dx="1062" dy="654" grid="1" gridSize="10" guides="1" tooltips="1" connect="1" arrows="1" fold="1" page="1" pageScale="1" pageWidth="827" pageHeight="1169" math="0" shadow="0">
      <root>
        <mxCell id="0" />
        <mxCell id="1" parent="0" />
        <mxCell id="VvVT3xu38Tis8UkaqFeF-3" value="" style="edgeStyle=orthogonalEdgeStyle;rounded=0;orthogonalLoop=1;jettySize=auto;html=1;" edge="1" parent="1" source="VvVT3xu38Tis8UkaqFeF-1" target="VvVT3xu38Tis8UkaqFeF-2">
          <mxGeometry relative="1" as="geometry" />
        </mxCell>
        <mxCell id="VvVT3xu38Tis8UkaqFeF-21" value="" style="edgeStyle=orthogonalEdgeStyle;rounded=0;orthogonalLoop=1;jettySize=auto;html=1;" edge="1" parent="1" source="VvVT3xu38Tis8UkaqFeF-1" target="VvVT3xu38Tis8UkaqFeF-20">
          <mxGeometry relative="1" as="geometry" />
        </mxCell>
        <mxCell id="VvVT3xu38Tis8UkaqFeF-38" style="edgeStyle=orthogonalEdgeStyle;rounded=0;orthogonalLoop=1;jettySize=auto;html=1;entryX=1;entryY=0.5;entryDx=0;entryDy=0;" edge="1" parent="1" source="VvVT3xu38Tis8UkaqFeF-1" target="VvVT3xu38Tis8UkaqFeF-37">
          <mxGeometry relative="1" as="geometry" />
        </mxCell>
        <mxCell id="VvVT3xu38Tis8UkaqFeF-39" style="edgeStyle=orthogonalEdgeStyle;rounded=0;orthogonalLoop=1;jettySize=auto;html=1;" edge="1" parent="1" source="VvVT3xu38Tis8UkaqFeF-1" target="VvVT3xu38Tis8UkaqFeF-35">
          <mxGeometry relative="1" as="geometry" />
        </mxCell>
        <mxCell id="VvVT3xu38Tis8UkaqFeF-40" style="edgeStyle=orthogonalEdgeStyle;rounded=0;orthogonalLoop=1;jettySize=auto;html=1;entryX=1;entryY=0.5;entryDx=0;entryDy=0;" edge="1" parent="1" source="VvVT3xu38Tis8UkaqFeF-1" target="VvVT3xu38Tis8UkaqFeF-36">
          <mxGeometry relative="1" as="geometry" />
        </mxCell>
        <mxCell id="VvVT3xu38Tis8UkaqFeF-51" style="edgeStyle=orthogonalEdgeStyle;rounded=0;orthogonalLoop=1;jettySize=auto;html=1;entryX=0.5;entryY=1;entryDx=0;entryDy=0;" edge="1" parent="1" source="VvVT3xu38Tis8UkaqFeF-1" target="VvVT3xu38Tis8UkaqFeF-42">
          <mxGeometry relative="1" as="geometry" />
        </mxCell>
        <mxCell id="VvVT3xu38Tis8UkaqFeF-1" value="ploeg" style="whiteSpace=wrap;html=1;" vertex="1" parent="1">
          <mxGeometry x="340" y="600" width="120" height="60" as="geometry" />
        </mxCell>
        <mxCell id="VvVT3xu38Tis8UkaqFeF-5" value="" style="edgeStyle=orthogonalEdgeStyle;rounded=0;orthogonalLoop=1;jettySize=auto;html=1;" edge="1" parent="1" source="VvVT3xu38Tis8UkaqFeF-2" target="VvVT3xu38Tis8UkaqFeF-4">
          <mxGeometry relative="1" as="geometry" />
        </mxCell>
        <mxCell id="VvVT3xu38Tis8UkaqFeF-2" value="heeft" style="rhombus;whiteSpace=wrap;html=1;" vertex="1" parent="1">
          <mxGeometry x="360" y="700" width="80" height="80" as="geometry" />
        </mxCell>
        <mxCell id="VvVT3xu38Tis8UkaqFeF-10" value="" style="edgeStyle=orthogonalEdgeStyle;rounded=0;orthogonalLoop=1;jettySize=auto;html=1;" edge="1" parent="1" source="VvVT3xu38Tis8UkaqFeF-4" target="VvVT3xu38Tis8UkaqFeF-9">
          <mxGeometry relative="1" as="geometry" />
        </mxCell>
        <mxCell id="VvVT3xu38Tis8UkaqFeF-12" style="edgeStyle=orthogonalEdgeStyle;rounded=0;orthogonalLoop=1;jettySize=auto;html=1;" edge="1" parent="1" source="VvVT3xu38Tis8UkaqFeF-4" target="VvVT3xu38Tis8UkaqFeF-11">
          <mxGeometry relative="1" as="geometry">
            <Array as="points">
              <mxPoint x="450" y="920" />
            </Array>
          </mxGeometry>
        </mxCell>
        <mxCell id="VvVT3xu38Tis8UkaqFeF-16" style="edgeStyle=orthogonalEdgeStyle;rounded=0;orthogonalLoop=1;jettySize=auto;html=1;" edge="1" parent="1" source="VvVT3xu38Tis8UkaqFeF-4" target="VvVT3xu38Tis8UkaqFeF-13">
          <mxGeometry relative="1" as="geometry">
            <Array as="points">
              <mxPoint x="430" y="970" />
            </Array>
          </mxGeometry>
        </mxCell>
        <mxCell id="VvVT3xu38Tis8UkaqFeF-19" style="edgeStyle=orthogonalEdgeStyle;rounded=0;orthogonalLoop=1;jettySize=auto;html=1;" edge="1" parent="1" source="VvVT3xu38Tis8UkaqFeF-4" target="VvVT3xu38Tis8UkaqFeF-17">
          <mxGeometry relative="1" as="geometry">
            <Array as="points">
              <mxPoint x="400" y="970" />
            </Array>
          </mxGeometry>
        </mxCell>
        <mxCell id="VvVT3xu38Tis8UkaqFeF-4" value="speler" style="whiteSpace=wrap;html=1;" vertex="1" parent="1">
          <mxGeometry x="340" y="820" width="120" height="60" as="geometry" />
        </mxCell>
        <mxCell id="VvVT3xu38Tis8UkaqFeF-6" value="(1,n)" style="text;html=1;align=center;verticalAlign=middle;resizable=0;points=[];autosize=1;strokeColor=none;fillColor=none;" vertex="1" parent="1">
          <mxGeometry x="400" y="660" width="50" height="30" as="geometry" />
        </mxCell>
        <mxCell id="VvVT3xu38Tis8UkaqFeF-8" value="(1,1)" style="text;html=1;align=center;verticalAlign=middle;resizable=0;points=[];autosize=1;strokeColor=none;fillColor=none;" vertex="1" parent="1">
          <mxGeometry x="405" y="788" width="50" height="30" as="geometry" />
        </mxCell>
        <mxCell id="VvVT3xu38Tis8UkaqFeF-9" value="naam" style="ellipse;whiteSpace=wrap;html=1;align=center;" vertex="1" parent="1">
          <mxGeometry x="530" y="830" width="100" height="40" as="geometry" />
        </mxCell>
        <mxCell id="VvVT3xu38Tis8UkaqFeF-11" value="SpelerLicentie" style="ellipse;whiteSpace=wrap;html=1;align=center;" vertex="1" parent="1">
          <mxGeometry x="530" y="890" width="100" height="40" as="geometry" />
        </mxCell>
        <mxCell id="VvVT3xu38Tis8UkaqFeF-13" value="leeftijd" style="ellipse;whiteSpace=wrap;html=1;align=center;" vertex="1" parent="1">
          <mxGeometry x="530" y="950" width="100" height="40" as="geometry" />
        </mxCell>
        <mxCell id="VvVT3xu38Tis8UkaqFeF-17" value="ploeg" style="ellipse;whiteSpace=wrap;html=1;align=center;" vertex="1" parent="1">
          <mxGeometry x="270" y="950" width="100" height="40" as="geometry" />
        </mxCell>
        <mxCell id="VvVT3xu38Tis8UkaqFeF-33" style="edgeStyle=orthogonalEdgeStyle;rounded=0;orthogonalLoop=1;jettySize=auto;html=1;" edge="1" parent="1" source="VvVT3xu38Tis8UkaqFeF-20" target="VvVT3xu38Tis8UkaqFeF-27">
          <mxGeometry relative="1" as="geometry" />
        </mxCell>
        <mxCell id="VvVT3xu38Tis8UkaqFeF-20" value="heeft" style="rhombus;whiteSpace=wrap;html=1;" vertex="1" parent="1">
          <mxGeometry x="530" y="590" width="80" height="80" as="geometry" />
        </mxCell>
        <mxCell id="VvVT3xu38Tis8UkaqFeF-23" value="" style="edgeStyle=orthogonalEdgeStyle;rounded=0;orthogonalLoop=1;jettySize=auto;html=1;" edge="1" parent="1" source="VvVT3xu38Tis8UkaqFeF-27" target="VvVT3xu38Tis8UkaqFeF-29">
          <mxGeometry relative="1" as="geometry" />
        </mxCell>
        <mxCell id="VvVT3xu38Tis8UkaqFeF-24" style="edgeStyle=orthogonalEdgeStyle;rounded=0;orthogonalLoop=1;jettySize=auto;html=1;" edge="1" parent="1" source="VvVT3xu38Tis8UkaqFeF-27" target="VvVT3xu38Tis8UkaqFeF-30">
          <mxGeometry relative="1" as="geometry">
            <Array as="points">
              <mxPoint x="780" y="711" />
            </Array>
          </mxGeometry>
        </mxCell>
        <mxCell id="VvVT3xu38Tis8UkaqFeF-26" style="edgeStyle=orthogonalEdgeStyle;rounded=0;orthogonalLoop=1;jettySize=auto;html=1;" edge="1" parent="1" source="VvVT3xu38Tis8UkaqFeF-27" target="VvVT3xu38Tis8UkaqFeF-32">
          <mxGeometry relative="1" as="geometry">
            <Array as="points">
              <mxPoint x="780" y="589" />
            </Array>
          </mxGeometry>
        </mxCell>
        <mxCell id="VvVT3xu38Tis8UkaqFeF-27" value="coach" style="whiteSpace=wrap;html=1;" vertex="1" parent="1">
          <mxGeometry x="670" y="600" width="120" height="60" as="geometry" />
        </mxCell>
        <mxCell id="VvVT3xu38Tis8UkaqFeF-28" value="(1,1)" style="text;html=1;align=center;verticalAlign=middle;resizable=0;points=[];autosize=1;strokeColor=none;fillColor=none;" vertex="1" parent="1">
          <mxGeometry x="630" y="600" width="50" height="30" as="geometry" />
        </mxCell>
        <mxCell id="VvVT3xu38Tis8UkaqFeF-29" value="naam" style="ellipse;whiteSpace=wrap;html=1;align=center;" vertex="1" parent="1">
          <mxGeometry x="860" y="621" width="100" height="40" as="geometry" />
        </mxCell>
        <mxCell id="VvVT3xu38Tis8UkaqFeF-30" value="CoachLicentie" style="ellipse;whiteSpace=wrap;html=1;align=center;" vertex="1" parent="1">
          <mxGeometry x="860" y="681" width="100" height="40" as="geometry" />
        </mxCell>
        <mxCell id="VvVT3xu38Tis8UkaqFeF-32" value="ploeg" style="ellipse;whiteSpace=wrap;html=1;align=center;" vertex="1" parent="1">
          <mxGeometry x="860" y="569" width="100" height="40" as="geometry" />
        </mxCell>
        <mxCell id="VvVT3xu38Tis8UkaqFeF-34" value="(1,1)" style="text;html=1;align=center;verticalAlign=middle;resizable=0;points=[];autosize=1;strokeColor=none;fillColor=none;" vertex="1" parent="1">
          <mxGeometry x="450" y="600" width="50" height="30" as="geometry" />
        </mxCell>
        <mxCell id="VvVT3xu38Tis8UkaqFeF-35" value="naam" style="ellipse;whiteSpace=wrap;html=1;align=center;" vertex="1" parent="1">
          <mxGeometry x="170" y="606" width="100" height="40" as="geometry" />
        </mxCell>
        <mxCell id="VvVT3xu38Tis8UkaqFeF-36" value="Spelers" style="ellipse;whiteSpace=wrap;html=1;align=center;" vertex="1" parent="1">
          <mxGeometry x="170" y="661" width="100" height="40" as="geometry" />
        </mxCell>
        <mxCell id="VvVT3xu38Tis8UkaqFeF-37" value="niveau" style="ellipse;whiteSpace=wrap;html=1;align=center;" vertex="1" parent="1">
          <mxGeometry x="170" y="554" width="100" height="40" as="geometry" />
        </mxCell>
        <mxCell id="VvVT3xu38Tis8UkaqFeF-41" style="edgeStyle=orthogonalEdgeStyle;rounded=0;orthogonalLoop=1;jettySize=auto;html=1;" edge="1" parent="1" source="VvVT3xu38Tis8UkaqFeF-42" target="VvVT3xu38Tis8UkaqFeF-46">
          <mxGeometry relative="1" as="geometry" />
        </mxCell>
        <mxCell id="VvVT3xu38Tis8UkaqFeF-42" value="gebruikt" style="rhombus;whiteSpace=wrap;html=1;" vertex="1" parent="1">
          <mxGeometry x="355" y="391" width="80" height="80" as="geometry" />
        </mxCell>
        <mxCell id="VvVT3xu38Tis8UkaqFeF-43" value="" style="edgeStyle=orthogonalEdgeStyle;rounded=0;orthogonalLoop=1;jettySize=auto;html=1;" edge="1" parent="1" source="VvVT3xu38Tis8UkaqFeF-46" target="VvVT3xu38Tis8UkaqFeF-48">
          <mxGeometry relative="1" as="geometry" />
        </mxCell>
        <mxCell id="VvVT3xu38Tis8UkaqFeF-44" style="edgeStyle=orthogonalEdgeStyle;rounded=0;orthogonalLoop=1;jettySize=auto;html=1;" edge="1" parent="1" source="VvVT3xu38Tis8UkaqFeF-46" target="VvVT3xu38Tis8UkaqFeF-49">
          <mxGeometry relative="1" as="geometry">
            <Array as="points">
              <mxPoint x="605" y="512" />
            </Array>
          </mxGeometry>
        </mxCell>
        <mxCell id="VvVT3xu38Tis8UkaqFeF-45" style="edgeStyle=orthogonalEdgeStyle;rounded=0;orthogonalLoop=1;jettySize=auto;html=1;" edge="1" parent="1" source="VvVT3xu38Tis8UkaqFeF-46" target="VvVT3xu38Tis8UkaqFeF-50">
          <mxGeometry relative="1" as="geometry">
            <Array as="points">
              <mxPoint x="605" y="390" />
            </Array>
          </mxGeometry>
        </mxCell>
        <mxCell id="VvVT3xu38Tis8UkaqFeF-46" value="zaal" style="whiteSpace=wrap;html=1;" vertex="1" parent="1">
          <mxGeometry x="495" y="401" width="120" height="60" as="geometry" />
        </mxCell>
        <mxCell id="VvVT3xu38Tis8UkaqFeF-47" value="(1,m)" style="text;html=1;align=center;verticalAlign=middle;resizable=0;points=[];autosize=1;strokeColor=none;fillColor=none;" vertex="1" parent="1">
          <mxGeometry x="445" y="410" width="50" height="30" as="geometry" />
        </mxCell>
        <mxCell id="VvVT3xu38Tis8UkaqFeF-48" value="naam" style="ellipse;whiteSpace=wrap;html=1;align=center;" vertex="1" parent="1">
          <mxGeometry x="685" y="422" width="100" height="40" as="geometry" />
        </mxCell>
        <mxCell id="VvVT3xu38Tis8UkaqFeF-49" value="beschikbaar?" style="ellipse;whiteSpace=wrap;html=1;align=center;" vertex="1" parent="1">
          <mxGeometry x="690" y="482" width="100" height="40" as="geometry" />
        </mxCell>
        <mxCell id="VvVT3xu38Tis8UkaqFeF-50" value="Addres" style="ellipse;whiteSpace=wrap;html=1;align=center;" vertex="1" parent="1">
          <mxGeometry x="685" y="370" width="100" height="40" as="geometry" />
        </mxCell>
        <mxCell id="VvVT3xu38Tis8UkaqFeF-52" value="(1,n)" style="text;html=1;align=center;verticalAlign=middle;resizable=0;points=[];autosize=1;strokeColor=none;fillColor=none;" vertex="1" parent="1">
          <mxGeometry x="400" y="564" width="50" height="30" as="geometry" />
        </mxCell>
      </root>
    </mxGraphModel>
  </diagram>
</mxfile>
